<?xml version="1.0" encoding="UTF-8" standalone="no"?>
<!-- Created with Inkscape (http://www.inkscape.org/) -->

<svg
   width="210mm"
   height="297mm"
   viewBox="0 0 210 297"
   version="1.1"
   id="svg1122"
   inkscape:version="1.1.2 (b8e25be8, 2022-02-05)"
   sodipodi:docname="logoVector-sman3sinjai-byYoshStd.svg"
   xmlns:inkscape="http://www.inkscape.org/namespaces/inkscape"
   xmlns:sodipodi="http://sodipodi.sourceforge.net/DTD/sodipodi-0.dtd"
   xmlns="http://www.w3.org/2000/svg"
   xmlns:svg="http://www.w3.org/2000/svg">
  <sodipodi:namedview
     id="namedview1124"
     pagecolor="#ffffff"
     bordercolor="#666666"
     borderopacity="1.0"
     inkscape:pageshadow="2"
     inkscape:pageopacity="0.0"
     inkscape:pagecheckerboard="0"
     inkscape:document-units="mm"
     showgrid="false"
     inkscape:zoom="0.57549102"
     inkscape:cx="89.488798"
     inkscape:cy="582.1116"
     inkscape:window-width="1920"
     inkscape:window-height="973"
     inkscape:window-x="0"
     inkscape:window-y="25"
     inkscape:window-maximized="1"
     inkscape:current-layer="layer1" />
  <defs
     id="defs1119" />
  <g
     inkscape:label="Layer 1"
     inkscape:groupmode="layer"
     id="layer1">
    <g
       id="g42432"
       inkscape:export-filename="/Users/riuss/Project/logoHD-sman3sinjai-byYoshStd.png"
       inkscape:export-xdpi="155.44353"
       inkscape:export-ydpi="155.44353"
       transform="matrix(1.1744027,0,0,1.174012,-328.29264,-20.308264)"
       style="stroke-width:0.851638">
      <g
         id="g14892"
         transform="translate(264.58344)"
         style="fill:#fef600;fill-opacity:1;stroke:#000000;stroke-width:0.851638">
        <path
           id="path17405"
           style="fill:#0091dc;fill-opacity:1;stroke:#000000;stroke-width:6.43758;stroke-linecap:round;stroke-linejoin:round;stroke-miterlimit:4;stroke-dasharray:none;stroke-opacity:1;paint-order:markers fill stroke"
           d="m 1155.5195,132.49609 c 22.9118,83.86813 -19.0772,116.85548 -90.791,116.85547 0,35.92241 0.016,86.36588 2.4785,143.35742 h 88.3125 v -26.0664 h 91.6602 c 0,-0.96982 0.065,-1.90779 0.1914,-2.81836 0.1261,-0.91057 0.3141,-1.79296 0.5625,-2.64649 0.2484,-0.85352 0.5569,-1.67982 0.9238,-2.47851 0.3669,-0.79869 0.7918,-1.57035 1.2735,-2.31641 0.4816,-0.74605 1.0187,-1.46648 1.6113,-2.16211 0.5926,-0.69563 1.2397,-1.36626 1.9394,-2.01367 0.6998,-0.64741 1.4527,-1.27165 2.2559,-1.87305 0.8032,-0.60139 1.6577,-1.17874 2.5605,-1.73632 0.9029,-0.55759 1.8548,-1.09535 2.8536,-1.61133 0.9987,-0.51599 2.0439,-1.01169 3.1347,-1.48828 1.0909,-0.47659 2.2271,-0.93365 3.4063,-1.37305 1.1791,-0.4394 2.4023,-0.86121 3.666,-1.26562 1.2637,-0.40442 2.5676,-0.79048 3.9121,-1.16211 1.3445,-0.37164 2.7289,-0.7273 4.1504,-1.06836 2.843,-0.68213 5.8365,-1.30584 8.9648,-1.87891 3.1284,-0.57307 6.3919,-1.09646 9.7754,-1.57812 3.3836,-0.48167 6.8876,-0.92217 10.4961,-1.33008 3.6086,-0.40792 7.3217,-0.78297 11.125,-1.13477 3.8034,-0.3518 7.6961,-0.6808 11.6641,-0.99414 7.9359,-0.62668 16.1708,-1.19276 24.584,-1.77148 8.4132,-0.57873 17.0053,-1.16985 25.6543,-1.8418 l 12.5605,-26.33789 12.5625,26.33789 c 8.649,0.67195 17.2411,1.26307 25.6543,1.8418 8.4132,0.57872 16.6481,1.1448 24.584,1.77148 3.968,0.31334 7.8607,0.64234 11.6641,0.99414 3.8033,0.3518 7.5164,0.72685 11.125,1.13477 3.6085,0.40791 7.1125,0.84841 10.496,1.33008 3.3836,0.48166 6.6471,1.00505 9.7754,1.57812 3.1284,0.57307 6.1219,1.19678 8.9649,1.87891 1.4215,0.34106 2.8059,0.69672 4.1504,1.06836 1.3445,0.37163 2.6484,0.75769 3.9121,1.16211 1.2637,0.40441 2.4868,0.82622 3.666,1.26562 1.1792,0.4394 2.3154,0.89646 3.4062,1.37305 1.0909,0.47659 2.1361,0.97229 3.1348,1.48828 0.9988,0.51598 1.9507,1.05374 2.8535,1.61133 0.9029,0.55758 1.7574,1.13493 2.5606,1.73632 0.8032,0.6014 1.5541,1.22564 2.2539,1.87305 0.6998,0.64741 1.3468,1.31804 1.9394,2.01367 0.5926,0.69563 1.1317,1.41606 1.6133,2.16211 0.4816,0.74606 0.9066,1.51772 1.2735,2.31641 0.3668,0.79869 0.6754,1.62499 0.9238,2.47851 0.2483,0.85353 0.4364,1.73592 0.5625,2.64649 0.1261,0.91057 0.1894,1.84854 0.1894,2.81836 h 91.6621 v 26.0664 h 88.3125 c 2.463,-56.99154 2.4786,-107.43501 2.4786,-143.35742 -71.7138,1e-5 -113.7028,-32.98734 -90.7911,-116.85547 h -238.9277 z"
           transform="matrix(0.26458333,0,0,0.26458333,-264.58344,0)" />
        <path
           id="path14890"
           style="fill:#fef600;fill-opacity:1;stroke:#000000;stroke-width:6.43758;stroke-linecap:round;stroke-linejoin:round;stroke-miterlimit:4;stroke-dasharray:none;stroke-opacity:1;paint-order:markers fill stroke"
           d="m 1721.6855,392.70898 h -88.3125 v -26.0664 h -91.6621 c 0,-0.96982 -0.063,-1.90779 -0.1894,-2.81836 -0.1261,-0.91057 -0.3142,-1.79296 -0.5625,-2.64649 -0.2484,-0.85352 -0.557,-1.67982 -0.9238,-2.47851 -0.3669,-0.79869 -0.7919,-1.57035 -1.2735,-2.31641 -0.4816,-0.74605 -1.0207,-1.46648 -1.6133,-2.16211 -0.5926,-0.69563 -1.2396,-1.36626 -1.9394,-2.01367 -0.6998,-0.64741 -1.4507,-1.27165 -2.2539,-1.87305 -0.8032,-0.60139 -1.6577,-1.17874 -2.5606,-1.73632 -0.9028,-0.55759 -1.8547,-1.09535 -2.8535,-1.61133 -0.9987,-0.51599 -2.0439,-1.01169 -3.1348,-1.48828 -1.0908,-0.47659 -2.227,-0.93365 -3.4062,-1.37305 -1.1792,-0.4394 -2.4023,-0.86121 -3.666,-1.26562 -1.2637,-0.40442 -2.5676,-0.79048 -3.9121,-1.16211 -1.3445,-0.37164 -2.7289,-0.7273 -4.1504,-1.06836 -2.843,-0.68213 -5.8365,-1.30584 -8.9649,-1.87891 -3.1283,-0.57307 -6.3918,-1.09646 -9.7754,-1.57812 -3.3835,-0.48167 -6.8875,-0.92217 -10.496,-1.33008 -3.6086,-0.40792 -7.3217,-0.78297 -11.125,-1.13477 -3.8034,-0.3518 -7.6961,-0.6808 -11.6641,-0.99414 -7.9359,-0.62668 -16.1708,-1.19276 -24.584,-1.77148 -8.4132,-0.57873 -17.0053,-1.16985 -25.6543,-1.8418 l -12.5625,-26.33789 -12.5605,26.33789 c -8.649,0.67195 -17.2411,1.26307 -25.6543,1.8418 -8.4132,0.57872 -16.6481,1.1448 -24.584,1.77148 -3.968,0.31334 -7.8607,0.64234 -11.6641,0.99414 -3.8033,0.3518 -7.5164,0.72685 -11.125,1.13477 -3.6085,0.40791 -7.1125,0.84841 -10.4961,1.33008 -3.3835,0.48166 -6.647,1.00505 -9.7754,1.57812 -3.1283,0.57307 -6.1218,1.19678 -8.9648,1.87891 -1.4215,0.34106 -2.8059,0.69672 -4.1504,1.06836 -1.3445,0.37163 -2.6484,0.75769 -3.9121,1.16211 -1.2637,0.40441 -2.4869,0.82622 -3.666,1.26562 -1.1792,0.4394 -2.3154,0.89646 -3.4063,1.37305 -1.0908,0.47659 -2.136,0.97229 -3.1347,1.48828 -0.9988,0.51598 -1.9507,1.05374 -2.8536,1.61133 -0.9028,0.55758 -1.7573,1.13493 -2.5605,1.73632 -0.8032,0.6014 -1.5561,1.22564 -2.2559,1.87305 -0.6997,0.64741 -1.3468,1.31804 -1.9394,2.01367 -0.5926,0.69563 -1.1297,1.41606 -1.6113,2.16211 -0.4817,0.74606 -0.9066,1.51772 -1.2735,2.31641 -0.3669,0.79869 -0.6754,1.62499 -0.9238,2.47851 -0.2484,0.85353 -0.4364,1.73592 -0.5625,2.64649 -0.1261,0.91057 -0.1914,1.84854 -0.1914,2.81836 h -91.6602 v 26.0664 h -88.3125 c 5.0056,115.82588 20.1669,258.83608 66.1934,362.93164 30.7869,69.62911 81.6409,118.90643 152.8769,131.42774 51.8552,9.11471 91.507,17.41803 108.168,67.33398 16.661,-49.91595 56.3148,-58.21927 108.1699,-67.33398 71.2361,-12.52131 122.0881,-61.79863 152.875,-131.42774 46.0265,-104.09556 61.1898,-247.10576 66.1953,-362.93164 z"
           transform="matrix(0.26458333,0,0,0.26458333,-264.58344,0)" />
      </g>
      <g
         aria-label="SMA NEGERI 3 SINJAI"
         id="text14872"
         style="font-weight:bold;font-size:12.7px;line-height:1;font-family:Futura;-inkscape-font-specification:'Futura Bold';text-align:center;text-anchor:middle;fill:#ffffff;stroke-width:0.22533"
         transform="translate(-1.6232137e-5)">
        <path
           d="m 325.68529,43.448058 q -0.4064,-0.3302 -0.8128,-0.4826 -0.4064,-0.1651 -0.7874,-0.1651 -0.4826,0 -0.7874,0.2286 -0.3048,0.2286 -0.3048,0.5969 0,0.254 0.1524,0.4191 0.1524,0.1651 0.3937,0.2921 0.254,0.1143 0.5588,0.2032 0.3175,0.0889 0.6223,0.1905 1.2192,0.4064 1.778,1.0922 0.5715,0.6731 0.5715,1.7653 0,0.7366 -0.254,1.3335 -0.2413,0.5969 -0.7239,1.0287 -0.4699,0.4191 -1.1684,0.6477 -0.6858,0.2413 -1.5621,0.2413 -1.8161,0 -3.3655,-1.0795 l 1.0668,-2.0066 q 0.5588,0.4953 1.1049,0.7366 0.5461,0.2413 1.0795,0.2413 0.6096,0 0.9017,-0.2794 0.3048,-0.2794 0.3048,-0.635 0,-0.2159 -0.0762,-0.3683 -0.0762,-0.1651 -0.254,-0.2921 -0.1778,-0.1397 -0.4699,-0.254 -0.2794,-0.1143 -0.6858,-0.254 -0.4826,-0.1524 -0.9525,-0.3302 -0.4572,-0.1905 -0.8255,-0.4953 -0.3556,-0.3048 -0.5842,-0.762 -0.2159,-0.4699 -0.2159,-1.1811 0,-0.7112 0.2286,-1.2827 0.2413,-0.5842 0.6604,-0.9906 0.4318,-0.4191 1.0414,-0.6477 0.6223,-0.2286 1.3843,-0.2286 0.7112,0 1.4859,0.2032 0.7747,0.1905 1.4859,0.5715 z"
           id="path42109"
           style="stroke-width:0.22533" />
        <path
           d="m 328.20604,50.572758 1.6256,-9.5758 h 2.4638 l 1.9177,5.1054 1.905,-5.1054 h 2.4638 l 1.6256,9.5758 h -2.4765 l -0.8255,-5.5118 -2.2606,5.5118 h -0.9906 l -2.1463,-5.5118 -0.8255,5.5118 z"
           id="path42111"
           style="stroke-width:0.22533" />
        <path
           d="m 346.99132,47.016758 -1.1176,-3.1877 -1.1176,3.1877 z m 0.6604,1.8923 h -3.556 l -0.5715,1.6637 h -2.6543 l 3.6449,-9.5758 h 2.7178 l 3.6449,9.5758 h -2.6543 z"
           id="path42113"
           style="stroke-width:0.22533" />
        <path
           d="m 356.29507,50.572758 v -9.5758 h 2.4892 l 4.5974,5.8547 v -5.8547 h 2.4765 v 9.5758 h -2.4765 l -4.5974,-5.8547 v 5.8547 z"
           id="path42115"
           style="stroke-width:0.22533" />
        <path
           d="m 373.30235,43.105158 h -2.9591 v 1.6002 h 2.794 v 2.1082 h -2.794 v 1.651 h 2.9591 v 2.1082 h -5.4483 v -9.5758 h 5.4483 z"
           id="path42117"
           style="stroke-width:0.22533" />
        <path
           d="m 379.75792,45.213358 h 4.9403 q 0,0.762 -0.0635,1.3843 -0.0635,0.6223 -0.254,1.1557 -0.2667,0.7493 -0.7239,1.3335 -0.4572,0.5715 -1.0795,0.9652 -0.6096,0.381 -1.3462,0.5842 -0.7366,0.2032 -1.5494,0.2032 -1.1176,0 -2.0447,-0.3683 -0.9144,-0.3683 -1.5748,-1.0287 -0.6604,-0.6731 -1.0287,-1.6002 -0.3683,-0.9398 -0.3683,-2.0701 0,-1.1176 0.3556,-2.0447 0.3683,-0.9398 1.0287,-1.6002 0.6731,-0.6604 1.6129,-1.0287 0.9398,-0.3683 2.0955,-0.3683 1.4986,0 2.6289,0.6477 1.1303,0.6477 1.7907,2.0066 l -2.3622,0.9779 q -0.3302,-0.7874 -0.8636,-1.1303 -0.5207,-0.3429 -1.1938,-0.3429 -0.5588,0 -1.016,0.2159 -0.4572,0.2032 -0.7874,0.5969 -0.3175,0.381 -0.508,0.9271 -0.1778,0.5461 -0.1778,1.2192 0,0.6096 0.1524,1.1303 0.1651,0.5207 0.4826,0.9017 0.3175,0.381 0.7874,0.5969 0.4699,0.2032 1.0922,0.2032 0.3683,0 0.7112,-0.0762 0.3429,-0.0889 0.6096,-0.2667 0.2794,-0.1905 0.4572,-0.4826 0.1778,-0.2921 0.2413,-0.7112 h -2.0447 z"
           id="path42119"
           style="stroke-width:0.22533" />
        <path
           d="m 391.73223,43.105158 h -2.9591 v 1.6002 h 2.794 v 2.1082 h -2.794 v 1.651 h 2.9591 v 2.1082 h -5.4483 v -9.5758 h 5.4483 z"
           id="path42121"
           style="stroke-width:0.22533" />
        <path
           d="m 396.0161,45.276858 h 0.4699 q 0.7366,0 1.1303,-0.3048 0.3937,-0.3048 0.3937,-0.8763 0,-0.5715 -0.3937,-0.8763 -0.3937,-0.3048 -1.1303,-0.3048 h -0.4699 z m 5.4737,5.2959 h -3.0988 l -2.3749,-3.683 v 3.683 h -2.4892 v -9.5758 h 3.8735 q 0.8001,0 1.397,0.2413 0.5969,0.2286 0.9779,0.635 0.3937,0.4064 0.5842,0.9398 0.2032,0.5334 0.2032,1.143 0,1.0922 -0.5334,1.778 -0.5207,0.6731 -1.5494,0.9144 z"
           id="path42123"
           style="stroke-width:0.22533" />
        <path
           d="m 405.0202,40.996958 v 9.5758 h -2.4892 v -9.5758 z"
           id="path42125"
           style="stroke-width:0.22533" />
        <path
           d="m 414.13067,44.730758 q 0.1016,0.0127 0.1651,0.0127 0.0762,0 0.127,0 0.4699,0 0.762,-0.2794 0.2921,-0.2794 0.2921,-0.7239 0,-0.4318 -0.2794,-0.6985 -0.2667,-0.2667 -0.6985,-0.2667 -0.4572,0 -0.7366,0.3048 -0.2794,0.3048 -0.2794,0.7874 h -2.2987 q 0.0889,-0.7493 0.3683,-1.3335 0.2921,-0.5842 0.7366,-0.9779 0.4445,-0.4064 1.0414,-0.6096 0.5969,-0.2159 1.3208,-0.2159 0.7112,0 1.2827,0.2032 0.5842,0.1905 0.9906,0.5588 0.4191,0.3556 0.635,0.8763 0.2286,0.508 0.2286,1.143 0,0.6858 -0.2667,1.1303 -0.254,0.4318 -0.7366,0.7493 0.7366,0.2286 1.143,0.8255 0.4191,0.5842 0.4191,1.4478 0,0.7112 -0.2794,1.2954 -0.2794,0.5842 -0.7874,1.0033 -0.4953,0.4191 -1.1938,0.6477 -0.6858,0.2286 -1.5113,0.2286 -1.1049,0 -1.9939,-0.4318 -0.889,-0.4318 -1.4224,-1.3716 -0.2413,-0.4191 -0.3302,-0.8382 -0.0762,-0.4191 -0.0762,-0.8509 h 2.4638 q 0.0254,0.6731 0.3937,1.0287 0.3683,0.3429 0.9906,0.3429 0.6604,0 0.9652,-0.3556 0.3048,-0.3556 0.3048,-0.8763 0,-0.6223 -0.3683,-0.9398 -0.3683,-0.3175 -0.8763,-0.3175 -0.127,0 -0.2413,0.0254 -0.1143,0.0127 -0.254,0.0381 z"
           id="path42127"
           style="stroke-width:0.22533" />
        <path
           d="m 352.7472,56.148058 q -0.4064,-0.3302 -0.8128,-0.4826 -0.4064,-0.1651 -0.7874,-0.1651 -0.4826,0 -0.7874,0.2286 -0.3048,0.2286 -0.3048,0.5969 0,0.254 0.1524,0.4191 0.1524,0.1651 0.3937,0.2921 0.254,0.1143 0.5588,0.2032 0.3175,0.0889 0.6223,0.1905 1.2192,0.4064 1.778,1.0922 0.5715,0.6731 0.5715,1.7653 0,0.7366 -0.254,1.3335 -0.2413,0.5969 -0.7239,1.0287 -0.4699,0.4191 -1.1684,0.6477 -0.6858,0.2413 -1.5621,0.2413 -1.8161,0 -3.3655,-1.0795 l 1.0668,-2.0066 q 0.5588,0.4953 1.1049,0.7366 0.5461,0.2413 1.0795,0.2413 0.6096,0 0.9017,-0.2794 0.3048,-0.2794 0.3048,-0.635 0,-0.2159 -0.0762,-0.3683 -0.0762,-0.1651 -0.254,-0.2921 -0.1778,-0.1397 -0.4699,-0.254 -0.2794,-0.1143 -0.6858,-0.254 -0.4826,-0.1524 -0.9525,-0.3302 -0.4572,-0.1905 -0.8255,-0.4953 -0.3556,-0.3048 -0.5842,-0.762 -0.2159,-0.4699 -0.2159,-1.1811 0,-0.7112 0.2286,-1.2827 0.2413,-0.5842 0.6604,-0.9906 0.4318,-0.4191 1.0414,-0.6477 0.6223,-0.2286 1.3843,-0.2286 0.7112,0 1.4859,0.2032 0.7747,0.1905 1.4859,0.5715 z"
           id="path42129"
           style="stroke-width:0.22533" />
        <path
           d="m 358.18895,53.696958 v 9.5758 h -2.4892 v -9.5758 z"
           id="path42131"
           style="stroke-width:0.22533" />
        <path
           d="m 360.1894,63.272758 v -9.5758 h 2.4892 l 4.5974,5.8547 v -5.8547 h 2.4765 v 9.5758 h -2.4765 l -4.5974,-5.8547 v 5.8547 z"
           id="path42133"
           style="stroke-width:0.22533" />
        <path
           d="m 376.46009,53.696958 v 6.6421 q 0,0.4191 -0.0508,0.7747 -0.0381,0.3556 -0.1397,0.6096 -0.1651,0.4064 -0.4572,0.7493 -0.2794,0.3302 -0.6604,0.5715 -0.381,0.2286 -0.8509,0.3556 -0.4572,0.1397 -0.9652,0.1397 -1.5367,0 -2.5019,-1.4097 l 1.6256,-1.6637 q 0.0635,0.4318 0.2794,0.6858 0.2159,0.254 0.5334,0.254 0.6985,0 0.6985,-1.1049 v -6.604 z"
           id="path42135"
           style="stroke-width:0.22533" />
        <path
           d="m 383.43277,59.716758 -1.1176,-3.1877 -1.1176,3.1877 z m 0.6604,1.8923 h -3.556 l -0.5715,1.6637 h -2.6543 l 3.6449,-9.5758 h 2.7178 l 3.6449,9.5758 h -2.6543 z"
           id="path42137"
           style="stroke-width:0.22533" />
        <path
           d="m 390.90634,53.696958 v 9.5758 h -2.4892 v -9.5758 z"
           id="path42139"
           style="stroke-width:0.22533" />
      </g>
      <path
         id="path36726"
         style="fill:#fef600;stroke-width:9.9071;stroke-linecap:round;stroke-linejoin:round;stroke-opacity:0.974432;paint-order:markers fill stroke"
         inkscape:transform-center-y="-0.69030648"
         transform="matrix(0.1031546,0,0,0.1031546,275.12566,2.7429239)"
         d="m 911.69666,613.07905 20.59572,41.7315 46.05345,6.69196 -33.32459,32.48345 7.86687,45.86736 -41.19145,-21.65563 -41.19146,21.65563 7.86687,-45.86736 -33.32459,-32.48345 46.05345,-6.69196 z" />
      <g
         id="g39382"
         transform="translate(264.58344)"
         style="stroke-width:0.851638">
        <path
           style="fill:#000000;stroke:none;stroke-width:0.22533px;stroke-linecap:butt;stroke-linejoin:miter;stroke-opacity:1"
           d="m 125.56755,103.78625 c -1.44712,5.3842 -3.87693,11.06594 0.48764,14.79178 -6.44675,6.55748 -11.64903,14.98167 -15.9296,24.78842 -2.84457,-1.12748 -5.68915,-3.0789 -8.53372,-5.28278 6.37402,-12.747 14.13714,-24.36534 23.97568,-34.29742 z"
           id="path39376"
           sodipodi:nodetypes="ccccc" />
        <path
           style="fill:#000000;stroke:none;stroke-width:0.22533px;stroke-linecap:butt;stroke-linejoin:miter;stroke-opacity:1"
           d="m 104.79405,140.36746 -0.77509,1.29373 c -3.21152,-0.22971 -5.834069,0.009 -6.177919,5.31588 -0.162441,2.50717 -0.122703,5.24175 -1.350522,6.98249 1.822004,-1.06436 3.842531,-1.73386 5.746901,-2.35623 5.71629,-1.86814 4.73974,-5.5902 3.50562,-8.62036 l 0.93517,-1.3488 z"
           id="path39378"
           sodipodi:nodetypes="ccscsccc" />
        <ellipse
           style="fill:#ffffff;fill-opacity:1;stroke:none;stroke-width:1.02279;stroke-linecap:round;stroke-linejoin:round;stroke-miterlimit:4;stroke-dasharray:none;stroke-opacity:0.974432;paint-order:markers fill stroke"
           id="ellipse39380"
           cx="-81.267365"
           cy="164.39478"
           rx="2.2859809"
           ry="1.2654178"
           transform="matrix(0.52867638,-0.84882347,0.87739378,0.47977094,0,0)" />
      </g>
      <g
         id="g41149"
         style="stroke-width:0.851638">
        <path
           id="path16677"
           style="fill:#0091dc;fill-opacity:1;stroke:#000000;stroke-width:3.2188;stroke-linecap:round;stroke-linejoin:round;stroke-miterlimit:4;stroke-dasharray:none;stroke-opacity:1"
           d="m 1323.0312,695.44727 c -42.0407,0.10684 -85.7997,12.50351 -120.1601,22.11523 l -21.4551,-0.002 -0.7305,28.49218 21.6153,-0.9375 5.3047,17.01563 -20.0098,8.54492 13.9004,23.62891 18.0957,-11.5 12.127,13.9375 -14.7227,14.73828 23.6191,18.58203 11.5547,-16.39844 19.3535,11.7168 -8.8203,17.37305 29.2188,12.27539 7.1953,-17.50782 25.1094,7.63868 -4.4063,18.00976 30.4649,5.64844 2.746,-18.07617 23.7989,2.35937 -0.5156,18.17188 18.1308,0.49218 18.1328,-0.49218 -0.5156,-18.17188 23.7988,-2.35937 2.7461,18.07617 30.4629,-5.64844 -4.4043,-18.00976 25.1074,-7.63868 7.1973,17.50782 29.2168,-12.27539 -8.8203,-17.37305 19.3555,-11.7168 11.5546,16.39844 23.6192,-18.58203 -14.7227,-14.73828 12.125,-13.9375 18.0977,11.5 13.9004,-23.62891 -20.0117,-8.54492 5.3066,-17.01563 21.6133,0.9375 -0.7285,-28.49218 -21.4551,0.002 c -54.9766,-15.37875 -134.0179,-37.88725 -191.5762,-5.7793 -21.5843,-12.04025 -46.1896,-16.40004 -71.4141,-16.33593 z"
           transform="scale(0.26458333)" />
        <g
           id="g36561"
           style="stroke-width:0.851638">
          <path
             style="fill:#ffffff;stroke:#000000;stroke-width:0.851638;stroke-linecap:round;stroke-linejoin:round;stroke-miterlimit:4;stroke-dasharray:none;stroke-opacity:1;paint-order:markers fill stroke"
             d="m 318.25945,189.85504 7.2411,-22.83785 c 3.95058,-7.05137 35.09165,-9.59214 43.44663,-1.44881 8.35498,-8.14349 39.49605,-5.60272 43.44663,1.44865 l 7.2411,22.83785 c -14.5459,-4.06896 -35.45877,-10.02399 -50.68773,-1.52876 -15.22896,-8.49507 -36.14183,-2.54004 -50.68773,1.52892 z"
             id="path15058-4"
             sodipodi:nodetypes="ccccccc" />
          <g
             id="g17094"
             style="stroke-width:0.340655;stroke-miterlimit:4;stroke-dasharray:none;paint-order:markers fill stroke">
            <g
               id="g14940"
               transform="matrix(-1,0,0,1,473.31104,0)"
               style="stroke-width:0.340655;stroke-miterlimit:4;stroke-dasharray:none;paint-order:markers fill stroke">
              <path
                 style="fill:none;stroke:#000000;stroke-width:0.340655;stroke-linecap:butt;stroke-linejoin:miter;stroke-miterlimit:4;stroke-dasharray:none;stroke-opacity:1;paint-order:markers fill stroke"
                 d="m 106.72001,166.50056 c 8.74746,-4.34178 27.69391,-4.81071 38.96739,0.93185"
                 id="path14926"
                 sodipodi:nodetypes="cc" />
              <path
                 style="fill:none;stroke:#000000;stroke-width:0.340655;stroke-linecap:butt;stroke-linejoin:miter;stroke-miterlimit:4;stroke-dasharray:none;stroke-opacity:1;paint-order:markers fill stroke"
                 d="m 106.72001,169.02511 c 8.46959,-4.75858 28.25055,-4.89272 39.6707,1.06984"
                 id="path14928"
                 sodipodi:nodetypes="cc" />
              <path
                 style="fill:none;stroke:#000000;stroke-width:0.340655;stroke-linecap:butt;stroke-linejoin:miter;stroke-miterlimit:4;stroke-dasharray:none;stroke-opacity:1;paint-order:markers fill stroke"
                 d="m 106.72001,171.58333 c 8.74746,-4.9842 29.16563,-4.62853 40.43911,1.42059"
                 id="path14930"
                 sodipodi:nodetypes="cc" />
              <path
                 style="fill:none;stroke:#000000;stroke-width:0.340655;stroke-linecap:butt;stroke-linejoin:miter;stroke-miterlimit:4;stroke-dasharray:none;stroke-opacity:1;paint-order:markers fill stroke"
                 d="m 106.72001,174.26307 c 8.74746,-4.7807 29.89968,-4.41205 41.17316,1.51976"
                 id="path14932"
                 sodipodi:nodetypes="cc" />
              <path
                 style="fill:none;stroke:#000000;stroke-width:0.340655;stroke-linecap:butt;stroke-linejoin:miter;stroke-miterlimit:4;stroke-dasharray:none;stroke-opacity:1;paint-order:markers fill stroke"
                 d="m 106.72001,177.06669 c 9.00812,-4.99589 30.56325,-4.49735 41.92169,1.54985"
                 id="path14934"
                 sodipodi:nodetypes="cc" />
              <path
                 style="fill:none;stroke:#000000;stroke-width:0.340655;stroke-linecap:butt;stroke-linejoin:miter;stroke-miterlimit:4;stroke-dasharray:none;stroke-opacity:1;paint-order:markers fill stroke"
                 d="m 106.72001,180.11444 c 8.93061,-5.4277 31.42666,-4.38144 42.81018,1.86568"
                 id="path14936"
                 sodipodi:nodetypes="cc" />
              <path
                 style="fill:none;stroke:#000000;stroke-width:0.340655;stroke-linecap:butt;stroke-linejoin:miter;stroke-miterlimit:4;stroke-dasharray:none;stroke-opacity:1;paint-order:markers fill stroke"
                 d="m 106.72001,183.64985 c 7.99749,-5.20724 32.10901,-4.24776 43.78576,2.02354"
                 id="path14938"
                 sodipodi:nodetypes="cc" />
            </g>
            <g
               id="g15814"
               transform="matrix(-1,0,0,1,737.89436,-1.6e-4)"
               style="stroke-width:0.340655;stroke-miterlimit:4;stroke-dasharray:none;paint-order:markers fill stroke">
              <g
                 id="g15810"
                 transform="matrix(-1,0,0,1,473.31104,0)"
                 style="stroke-width:0.340655;stroke-miterlimit:4;stroke-dasharray:none;paint-order:markers fill stroke">
                <path
                   style="fill:none;stroke:#000000;stroke-width:0.340655;stroke-linecap:butt;stroke-linejoin:miter;stroke-miterlimit:4;stroke-dasharray:none;stroke-opacity:1;paint-order:markers fill stroke"
                   d="m 106.72001,166.50056 c 8.74746,-4.34178 27.69391,-4.81071 38.96739,0.93185"
                   id="path15796"
                   sodipodi:nodetypes="cc" />
                <path
                   style="fill:none;stroke:#000000;stroke-width:0.340655;stroke-linecap:butt;stroke-linejoin:miter;stroke-miterlimit:4;stroke-dasharray:none;stroke-opacity:1;paint-order:markers fill stroke"
                   d="m 106.72001,169.02511 c 8.46959,-4.75858 28.25055,-4.89272 39.6707,1.06984"
                   id="path15798"
                   sodipodi:nodetypes="cc" />
                <path
                   style="fill:none;stroke:#000000;stroke-width:0.340655;stroke-linecap:butt;stroke-linejoin:miter;stroke-miterlimit:4;stroke-dasharray:none;stroke-opacity:1;paint-order:markers fill stroke"
                   d="m 106.72001,171.58333 c 8.74746,-4.9842 29.16563,-4.62853 40.43911,1.42059"
                   id="path15800"
                   sodipodi:nodetypes="cc" />
                <path
                   style="fill:none;stroke:#000000;stroke-width:0.340655;stroke-linecap:butt;stroke-linejoin:miter;stroke-miterlimit:4;stroke-dasharray:none;stroke-opacity:1;paint-order:markers fill stroke"
                   d="m 106.72001,174.26307 c 8.74746,-4.7807 29.89968,-4.41205 41.17316,1.51976"
                   id="path15802"
                   sodipodi:nodetypes="cc" />
                <path
                   style="fill:none;stroke:#000000;stroke-width:0.340655;stroke-linecap:butt;stroke-linejoin:miter;stroke-miterlimit:4;stroke-dasharray:none;stroke-opacity:1;paint-order:markers fill stroke"
                   d="m 106.72001,177.06669 c 9.00812,-4.99589 30.56325,-4.49735 41.92169,1.54985"
                   id="path15804"
                   sodipodi:nodetypes="cc" />
                <path
                   style="fill:none;stroke:#000000;stroke-width:0.340655;stroke-linecap:butt;stroke-linejoin:miter;stroke-miterlimit:4;stroke-dasharray:none;stroke-opacity:1;paint-order:markers fill stroke"
                   d="m 106.72001,180.11444 c 8.93061,-5.4277 31.42666,-4.38144 42.81018,1.86568"
                   id="path15806"
                   sodipodi:nodetypes="cc" />
                <path
                   style="fill:none;stroke:#000000;stroke-width:0.340655;stroke-linecap:butt;stroke-linejoin:miter;stroke-miterlimit:4;stroke-dasharray:none;stroke-opacity:1;paint-order:markers fill stroke"
                   d="m 106.72001,183.64985 c 7.99749,-5.20724 32.10901,-4.24776 43.78576,2.02354"
                   id="path15808"
                   sodipodi:nodetypes="cc" />
              </g>
            </g>
          </g>
          <path
             style="fill:none;stroke:#000000;stroke-width:0.425819;stroke-linecap:round;stroke-linejoin:round;stroke-miterlimit:4;stroke-dasharray:none;stroke-opacity:1;paint-order:markers fill stroke"
             d="m 368.94722,165.945 -3e-5,18.37131"
             id="path35696" />
        </g>
        <g
           id="g41115"
           style="stroke-width:0.851638">
          <g
             id="g36503"
             style="stroke-width:0.851638">
            <path
               style="color:#000000;fill:#000000;stroke:#000000;stroke-width:1.02197;stroke-linecap:round;stroke-linejoin:round;stroke-miterlimit:4;stroke-dasharray:none;paint-order:markers fill stroke"
               d="m 368.94754,197.907 c -7.25141,0 -14.27269,0.52538 -20.84375,2.56054 -0.83644,-0.50009 -1.63726,-0.75638 -2.40821,-0.72461 -0.84916,0.035 -1.66875,0.28555 -2.61132,0.52149 -1.88515,0.47188 -4.28694,0.9364 -8.42969,-0.22266 a 0.4000395,0.4000395 0 0 0 -0.45508,0.58399 l 2.98438,5.25976 -4.53516,4.03125 a 0.4000395,0.4000395 0 0 0 0.17578,0.6875 c 7.84876,1.77833 9.62888,0.88755 12.22461,0.29492 l -0.006,0.13868 a 0.4000395,0.4000395 0 0 0 0.51758,0.39648 c 7.24292,-2.25915 15.46086,-2.69903 23.38476,-2.68164 a 0.4000395,0.4000395 0 0 0 0.002,0 c 7.92391,-0.0174 16.14184,0.42249 23.38476,2.68164 a 0.4000395,0.4000395 0 0 0 0.51953,-0.39648 l -0.006,-0.13868 c 2.59556,0.59264 4.3742,1.48334 12.22265,-0.29492 a 0.4000395,0.4000395 0 0 0 0.17774,-0.6875 l -4.53516,-4.03125 2.98437,-5.25976 a 0.4000395,0.4000395 0 0 0 -0.45703,-0.58399 c -4.14274,1.15906 -6.54454,0.69454 -8.42968,0.22266 -0.94258,-0.23594 -1.76021,-0.48649 -2.60938,-0.52149 -0.77094,-0.0318 -1.57175,0.22452 -2.4082,0.72461 -6.57159,-2.03563 -13.59167,-2.56054 -20.84375,-2.56054 z m 0,0.80078 c 7.24896,0 14.22197,0.52523 20.70312,2.54883 a 0.4000395,0.4000395 0 0 0 0.34375,-0.0566 l -0.002,0.004 c 0.006,-0.004 0.01,-0.002 0.0156,-0.006 0.80683,-0.5382 1.4547,-0.68329 2.15821,-0.65429 0.7087,0.0292 1.48687,0.2552 2.44922,0.49609 1.76946,0.44292 4.29022,0.75297 7.98437,-0.10742 l -2.74414,4.83984 a 0.4000395,0.4000395 0 0 0 0.082,0.4961 l 4.16211,3.69921 c -7.3881,1.5756 -8.68867,0.63644 -11.59375,0.0527 a 0.4000395,0.4000395 0 0 0 -0.47851,0.40625 l 0.004,0.11133 c -7.2446,-2.16111 -15.31857,-2.60289 -23.08398,-2.58594 h -0.002 c -7.7654,-0.017 -15.8394,0.42483 -23.08398,2.58594 l 0.004,-0.11133 a 0.4000395,0.4000395 0 0 0 -0.47852,-0.40625 c -2.90517,0.58369 -4.2056,1.52482 -11.59375,-0.0508 l 4.16406,-3.70117 a 0.4000395,0.4000395 0 0 0 0.082,-0.4961 l -2.74609,-4.83984 c 3.6952,0.86096 6.21658,0.55042 7.98633,0.10742 0.96235,-0.24089 1.74052,-0.46688 2.44922,-0.49609 0.7087,-0.0292 1.35666,0.11205 2.17187,0.66015 l -0.002,-0.004 a 0.4000395,0.4000395 0 0 0 0.34375,0.0566 c 6.48116,-2.02361 13.45613,-2.54883 20.70508,-2.54883 z"
               id="path36137" />
            <g
               id="g14886"
               transform="translate(264.58344)"
               style="fill:#cc0045;fill-opacity:1;stroke:#ffffff;stroke-width:0.681311;stroke-linecap:round;stroke-linejoin:round;stroke-miterlimit:4;stroke-dasharray:none">
              <g
                 id="g14884"
                 transform="matrix(-1,0,0,1,198.86971,-1.6091331)"
                 style="fill:#cc0045;fill-opacity:1;stroke:#ffffff;stroke-width:0.681311;stroke-linecap:round;stroke-linejoin:round;stroke-miterlimit:4;stroke-dasharray:none">
                <path
                   style="fill:#cc0045;fill-opacity:1;stroke:#ffffff;stroke-width:0.681311;stroke-linecap:round;stroke-linejoin:round;stroke-miterlimit:4;stroke-dasharray:none;stroke-opacity:1"
                   d="m 115.32937,202.48202 c 3.49535,-2.35006 5.15754,1.91042 13.57672,-0.4451 l -3.14397,5.54283 4.77691,4.24454 c -9.9073,2.24474 -9.84144,0.25132 -14.53967,-0.0694 z"
                   id="path14882"
                   sodipodi:nodetypes="cccccc" />
              </g>
              <g
                 id="g14878"
                 transform="translate(9.8578297,-1.6091331)"
                 style="fill:#cc0045;fill-opacity:1;stroke:#ffffff;stroke-width:0.681311;stroke-linecap:round;stroke-linejoin:round;stroke-miterlimit:4;stroke-dasharray:none">
                <path
                   style="fill:#cc0045;fill-opacity:1;stroke:#ffffff;stroke-width:0.681311;stroke-linecap:round;stroke-linejoin:round;stroke-miterlimit:4;stroke-dasharray:none;stroke-opacity:1"
                   d="m 115.32937,202.48202 c 3.49535,-2.35006 5.15754,1.91042 13.57672,-0.4451 l -3.14397,5.54283 4.77691,4.24454 c -9.9073,2.24474 -9.84144,0.25132 -14.53967,-0.0694 z"
                   id="path14876"
                   sodipodi:nodetypes="cccccc" />
                <path
                   style="fill:#cc0045;fill-opacity:1;stroke:#ffffff;stroke-width:0.681311;stroke-linecap:round;stroke-linejoin:round;stroke-miterlimit:4;stroke-dasharray:none;stroke-opacity:1"
                   d="m 118.01077,212.66235 -0.3489,-9.37833 c -7.1933,-2.71071 -15.01607,-3.36785 -23.15593,-3.36785 -8.13986,0 -15.96263,0.65714 -23.15593,3.36785 l -0.3489,9.37833 c 7.31073,-2.2803 15.56558,-2.71847 23.50483,-2.70105 7.93925,-0.0174 16.1941,0.42075 23.50483,2.70105 z"
                   id="path14874"
                   sodipodi:nodetypes="ccccccc" />
              </g>
            </g>
          </g>
          <path
             id="path91753-4"
             style="font-weight:bold;font-size:6.35px;line-height:1;font-family:Futura;-inkscape-font-specification:'Futura Bold';text-align:center;text-anchor:middle;fill:#ffff00;fill-opacity:1;stroke-width:0.22533"
             d="m 367.80109,200.58017 -1.90344,0.0224 v 5.41537 l 1.90344,-0.0224 c 0.34103,-0.004 0.65831,-0.0828 0.95092,-0.23428 0.29778,-0.15248 0.55519,-0.35397 0.77363,-0.60537 0.22357,-0.2514 0.39648,-0.54125 0.51807,-0.86786 0.12773,-0.33176 0.19059,-0.67477 0.19059,-1.0292 0,-0.35958 -0.0628,-0.70038 -0.19059,-1.02493 -0.12674,-0.32867 -0.30192,-0.61399 -0.52447,-0.85508 -0.21842,-0.24625 -0.4769,-0.44253 -0.77362,-0.58781 -0.29363,-0.14527 -0.60761,-0.21496 -0.94453,-0.21084 z m -2.64193,0.0516 -1.27572,0.0894 v 3.30535 l -2.36879,-3.1387 -1.28156,0.0899 v 5.38343 l 1.28156,-0.0825 v -3.29629 l 2.36879,3.14455 1.27572,-0.081 z m 8.39325,0.0676 c -0.34368,-0.002 -0.66235,0.0505 -0.95625,0.15865 -0.33175,0.11849 -0.61715,0.29476 -0.85721,0.52658 -0.24005,0.23285 -0.4278,0.51083 -0.56279,0.83538 -0.13497,0.31941 -0.20285,0.66977 -0.20285,1.04996 0,0.38122 0.0679,0.7402 0.20285,1.07712 0.13499,0.33279 0.32274,0.62618 0.56279,0.8817 0.24006,0.25552 0.52546,0.46041 0.85721,0.61496 0.3359,0.15146 0.70455,0.23486 1.10534,0.25238 0.39667,0.0175 0.7636,-0.0338 1.09947,-0.15335 0.33587,-0.12569 0.62301,-0.30384 0.86307,-0.53669 0.24419,-0.23182 0.43421,-0.5069 0.56917,-0.82526 0.136,-0.32146 0.20288,-0.67183 0.20288,-1.04996 0,-0.37813 -0.0669,-0.73254 -0.20288,-1.06327 -0.13496,-0.33589 -0.32498,-0.63045 -0.56917,-0.88596 -0.24006,-0.25553 -0.5272,-0.45982 -0.86307,-0.61231 -0.33587,-0.1566 -0.7028,-0.24507 -1.09947,-0.26568 -0.0501,-0.002 -0.0999,-0.004 -0.14909,-0.004 z m 3.62216,0.20817 v 5.36692 l 1.28261,0.13524 v -3.27127 l 2.36774,3.52045 1.27677,0.13417 v -5.30249 l -1.27677,-0.15121 v 3.25262 l -2.36774,-3.53268 z m -19.98168,0.48185 c -0.14025,-7.2e-4 -0.28479,0.009 -0.43393,0.0293 -0.40078,0.0536 -0.76997,0.1733 -1.10585,0.35567 -0.33177,0.17824 -0.61715,0.40259 -0.85721,0.67459 -0.23904,0.272 -0.42728,0.57901 -0.56224,0.92004 -0.135,0.33692 -0.20288,0.6924 -0.20288,1.06434 0,0.37297 0.0679,0.7131 0.20288,1.02014 0.13496,0.30291 0.3232,0.55918 0.56224,0.76937 0.24006,0.21121 0.52544,0.36586 0.85721,0.46374 0.33588,0.0938 0.70507,0.11658 1.10585,0.0682 0.3977,-0.0474 0.7636,-0.15865 1.09947,-0.33277 0.33591,-0.18031 0.62408,-0.40575 0.86416,-0.67673 0.24417,-0.27303 0.43367,-0.57953 0.56863,-0.92057 0.13497,-0.34515 0.20339,-0.70751 0.20339,-1.08563 0,-0.37813 -0.0684,-0.72003 -0.20339,-1.02707 -0.13496,-0.31012 -0.32446,-0.57092 -0.56863,-0.78213 -0.24008,-0.21019 -0.52825,-0.3608 -0.86416,-0.45044 -0.2099,-0.0586 -0.43175,-0.0888 -0.66554,-0.0899 z m 10.28661,0.38655 c 0.21844,-0.003 0.41531,0.0334 0.59046,0.10755 0.17515,0.0752 0.32127,0.17803 0.43873,0.31094 0.12262,0.13291 0.21626,0.29164 0.28218,0.47812 0.0659,0.18547 0.099,0.38632 0.099,0.60166 0,0.22048 -0.0331,0.42478 -0.099,0.61229 -0.0608,0.18237 -0.15212,0.34209 -0.27474,0.47706 -0.11847,0.13601 -0.26516,0.24276 -0.44031,0.32106 -0.17515,0.0793 -0.37377,0.1199 -0.59632,0.12299 l -0.29602,0.003 v -3.03114 z m -14.18666,0.13204 -3.38947,0.63892 v 1.14686 l 1.05367,-0.1938 v 4.08002 l 1.28209,-0.21457 v -4.10132 l 1.05371,-0.19274 z m 20.33892,0.082 c 0.0232,3e-5 0.0463,4.4e-4 0.0698,0.002 0.18752,0.009 0.36494,0.0533 0.52978,0.13364 0.17103,0.0762 0.31838,0.1807 0.4451,0.31361 0.13085,0.13291 0.23358,0.28646 0.30775,0.46161 0.0742,0.17516 0.11128,0.36354 0.11128,0.56651 0,0.20298 -0.0371,0.38841 -0.11128,0.55532 -0.0742,0.16795 -0.1769,0.31232 -0.30775,0.43287 -0.12672,0.12055 -0.27407,0.21299 -0.4451,0.27687 -0.16484,0.0598 -0.34226,0.0854 -0.52978,0.0772 -0.18753,-0.008 -0.36564,-0.0505 -0.53668,-0.12566 -0.16487,-0.0804 -0.31148,-0.18654 -0.43821,-0.31945 -0.12671,-0.13188 -0.22662,-0.28593 -0.30083,-0.46109 -0.0742,-0.17515 -0.11127,-0.36516 -0.11127,-0.56917 0,-0.20298 0.0371,-0.38952 0.11127,-0.55746 0.0742,-0.16897 0.17412,-0.31285 0.30083,-0.43339 0.12673,-0.12055 0.27334,-0.21019 0.43821,-0.26995 0.14964,-0.0558 0.30485,-0.0833 0.46694,-0.083 z m 11.18481,0.04 c -0.1544,0.003 -0.30175,0.0193 -0.44192,0.0489 -0.32044,0.069 -0.59551,0.19797 -0.82529,0.38549 -0.22563,0.18854 -0.40088,0.43564 -0.52762,0.74061 -0.12158,0.30085 -0.1821,0.64719 -0.1821,1.03665 0,0.39461 0.0639,0.7667 0.18955,1.11598 0.12672,0.34515 0.30256,0.65442 0.52923,0.92643 0.2277,0.26891 0.49772,0.49215 0.81195,0.67246 0.31838,0.18133 0.66993,0.30402 1.05423,0.3679 0.27922,0.0464 0.54515,0.0555 0.79758,0.0277 0.25244,-0.0278 0.483,-0.0894 0.69218,-0.18529 0.21224,-0.0999 0.39658,-0.23518 0.5532,-0.40519 0.15556,-0.17412 0.27826,-0.38081 0.3679,-0.62294 0.0639,-0.17103 0.10713,-0.36165 0.12671,-0.57183 0.0206,-0.21019 0.0298,-0.44537 0.0288,-0.70707 l -2.53652,-0.44831 0.003,1.00151 1.05049,0.18262 c -0.0206,0.14115 -0.0616,0.25645 -0.12246,0.34608 -0.0598,0.0907 -0.1379,0.1598 -0.23373,0.20925 -0.0907,0.0464 -0.19562,0.0744 -0.31306,0.0847 -0.11746,0.007 -0.23907,-10e-4 -0.36578,-0.0229 -0.21329,-0.0361 -0.401,-0.10282 -0.56173,-0.20073 -0.16177,-0.10303 -0.29649,-0.22973 -0.40572,-0.38015 -0.1092,-0.15146 -0.19303,-0.3216 -0.24971,-0.51221 -0.0525,-0.1906 -0.0783,-0.39149 -0.0793,-0.6027 0,-0.23388 0.0303,-0.43995 0.0911,-0.61922 0.0649,-0.17825 0.1511,-0.32376 0.2593,-0.43607 0.11228,-0.11642 0.24747,-0.19575 0.40305,-0.238 0.15661,-0.0464 0.32958,-0.0525 0.52018,-0.0175 0.23079,0.0412 0.43458,0.13712 0.61282,0.28858 0.18237,0.15042 0.33178,0.37183 0.44511,0.66341 l 1.20969,-0.28699 c -0.22872,-0.50691 -0.53687,-0.90806 -0.92324,-1.2017 -0.3874,-0.29467 -0.83654,-0.48925 -1.34757,-0.583 -0.22198,-0.0411 -0.43192,-0.0601 -0.6304,-0.0565 z m -27.85103,0.65064 c 0.11228,0.002 0.22004,0.0185 0.32371,0.0496 0.17004,0.0453 0.31841,0.12288 0.44514,0.23107 0.13085,0.10921 0.23303,0.24288 0.3072,0.40464 0.0742,0.16073 0.11128,0.34221 0.11128,0.54415 0,0.20194 -0.0371,0.39256 -0.11128,0.57183 -0.0742,0.18031 -0.17635,0.34124 -0.3072,0.48239 -0.12673,0.14115 -0.2751,0.25867 -0.44514,0.3514 -0.16587,0.0876 -0.34276,0.1419 -0.53029,0.16559 -0.1875,0.0227 -0.36562,0.0112 -0.53561,-0.0341 -0.16588,-0.0515 -0.31255,-0.13091 -0.43926,-0.24013 -0.12673,-0.10921 -0.22664,-0.24388 -0.30084,-0.40357 -0.0742,-0.1597 -0.11128,-0.34001 -0.11128,-0.53989 0,-0.20091 0.0371,-0.3904 0.11128,-0.56864 0.0742,-0.17928 0.17411,-0.3391 0.30084,-0.48026 0.12671,-0.14115 0.27338,-0.2564 0.43926,-0.34501 0.16999,-0.0927 0.34811,-0.15258 0.53561,-0.1773 0.0704,-0.009 0.13922,-0.0131 0.20658,-0.0117 z" />
        </g>
      </g>
    </g>
  </g>
</svg>
